<?xml version="1.0" encoding="UTF-8"?>
<svg xmlns="http://www.w3.org/2000/svg" xmlns:xlink="http://www.w3.org/1999/xlink" width="8pt" height="9pt" viewBox="0 0 8 9" version="1.1">
<g id="surface1">
<path style=" stroke:none;fill-rule:nonzero;fill:rgb(0%,0%,0%);fill-opacity:1;" d="M 5.601562 5.34375 C 5.085938 5.34375 4.839844 5.625 4 5.625 C 3.160156 5.625 2.914062 5.34375 2.398438 5.34375 C 1.074219 5.34375 0 6.402344 0 7.707031 L 0 8.15625 C 0 8.621094 0.382812 9 0.855469 9 L 7.144531 9 C 7.617188 9 8 8.621094 8 8.15625 L 8 7.707031 C 8 6.402344 6.925781 5.34375 5.601562 5.34375 Z M 7.144531 8.15625 L 0.855469 8.15625 L 0.855469 7.707031 C 0.855469 6.871094 1.550781 6.1875 2.398438 6.1875 C 2.660156 6.1875 3.082031 6.46875 4 6.46875 C 4.921875 6.46875 5.335938 6.1875 5.601562 6.1875 C 6.449219 6.1875 7.144531 6.871094 7.144531 7.707031 Z M 4 5.0625 C 5.417969 5.0625 6.570312 3.929688 6.570312 2.53125 C 6.570312 1.132812 5.417969 0 4 0 C 2.582031 0 1.429688 1.132812 1.429688 2.53125 C 1.429688 3.929688 2.582031 5.0625 4 5.0625 Z M 4 0.84375 C 4.945312 0.84375 5.714844 1.601562 5.714844 2.53125 C 5.714844 3.460938 4.945312 4.21875 4 4.21875 C 3.054688 4.21875 2.285156 3.460938 2.285156 2.53125 C 2.285156 1.601562 3.054688 0.84375 4 0.84375 Z M 4 0.84375 "/>
</g>
</svg>
